<svg width="530" height="253" viewBox="0 0 530 253" fill="none" xmlns="http://www.w3.org/2000/svg">
<path fill-rule="evenodd" clip-rule="evenodd" d="M223 0.000442505H276.5L313.342 40.7422C336.217 16.576 368.598 1.50046 404.5 1.50046C473.812 1.50046 530 57.6887 530 127C530 196.312 473.812 252.5 404.5 252.5C365.915 252.5 331.397 235.088 308.376 207.692L249.5 141.5L247.949 139.669L192.027 76.5306C176.777 56.4598 152.652 43.5005 125.5 43.5005C79.3842 43.5005 42 80.8847 42 127C42 173.116 79.3842 210.5 125.5 210.5C166.428 210.5 200.479 181.054 207.622 142.191L226.086 162.707L226.159 162.642L306.461 252.491H252.961L217.079 212.812C194.182 237.239 161.623 252.5 125.5 252.5C56.1883 252.5 0 196.312 0 127C0 57.6887 56.1883 1.50046 125.5 1.50046C164.547 1.50046 199.43 19.3331 222.447 47.2987L281 113L281.394 113.457L337.321 176.6C352.53 197.166 376.958 210.5 404.5 210.5C450.616 210.5 488 173.116 488 127C488 80.8847 450.616 43.5005 404.5 43.5005C363.694 43.5005 329.725 72.7714 322.443 111.462L290.164 75.1808L290.173 75.1605L223 0.000442505Z" fill="#2E3C42"/>
</svg>
