<svg width="254" height="531" viewBox="0 0 254 531" fill="none" xmlns="http://www.w3.org/2000/svg">
<path fill-rule="evenodd" clip-rule="evenodd" d="M253.25 223.25L253.25 276.75L212.508 313.592C236.674 336.467 251.75 368.848 251.75 404.75C251.75 474.062 195.562 530.25 126.25 530.25C56.9382 530.25 0.749979 474.062 0.749982 404.75C0.749984 366.166 18.1627 331.648 45.5588 308.626L111.75 249.75L113.582 248.2L176.72 192.277C196.791 177.027 209.75 152.902 209.75 125.75C209.75 79.6347 172.366 42.2505 126.25 42.2505C80.1342 42.2505 42.75 79.6347 42.75 125.75C42.75 166.679 72.1965 200.729 111.059 207.872L90.5431 226.337L90.6082 226.41L0.758959 306.711L0.758961 253.211L40.4387 217.33C16.0116 194.432 0.749993 161.874 0.749995 125.75C0.749998 56.4387 56.9383 0.250449 126.25 0.250452C195.562 0.250455 251.75 56.4387 251.75 125.75C251.75 164.798 233.917 199.68 205.952 222.698L140.25 281.25L139.793 281.645L76.6503 337.571C56.0847 352.781 42.75 377.208 42.75 404.75C42.75 450.866 80.1342 488.25 126.25 488.25C172.366 488.25 209.75 450.866 209.75 404.75C209.75 363.944 180.479 329.975 141.788 322.694L178.07 290.415L178.09 290.424L253.25 223.25Z" fill="#2E3C42"/>
</svg>
