<svg width="200" height="200" viewBox="0 0 200 200" fill="none" xmlns="http://www.w3.org/2000/svg">
<rect width="200" height="200" rx="10" fill="#69FFE0"/>
<g clip-path="url(#clip0)">
<path d="M145.916 42.2822C145.246 41.8998 144.422 41.9063 143.758 42.299L104.387 65.5803C103.366 66.1843 103.027 67.5017 103.631 68.523C104.235 69.5442 105.552 69.8826 106.574 69.2789L134.822 52.575L82.2055 107.17L56.0358 99.1632L90.1884 78.9679C91.2098 78.3638 91.5482 77.0463 90.9442 76.025C90.3405 75.0038 89.0229 74.665 88.0015 75.2691L49.6564 97.9435C48.9238 98.3769 48.5158 99.2017 48.6166 100.047C48.7174 100.892 49.3075 101.598 50.1214 101.847L81.3745 111.409L95.1625 136.505C95.1769 136.531 95.1917 136.553 95.207 136.573C95.4371 136.957 95.7819 137.27 96.212 137.451C96.4812 137.564 96.7641 137.619 97.0452 137.619C97.5958 137.619 98.1379 137.408 98.5471 137.007L114.401 121.513L144.223 130.636C144.429 130.699 144.641 130.73 144.851 130.73C145.306 130.73 145.755 130.586 146.129 130.309C146.677 129.904 147 129.263 147 128.582V44.1484C147 43.3769 146.586 42.6645 145.916 42.2822ZM95.2796 112.733C95.0308 113.092 94.8974 113.519 94.8974 113.956V127.098L85.4823 109.961L127.145 66.7328L95.2796 112.733ZM99.1942 130.367V116.861L109.719 120.081L99.1942 130.367ZM142.703 125.678L100.487 112.762L142.703 51.8192V125.678Z" fill="#2E3C42"/>
<path d="M72.3253 116.675C71.4861 115.836 70.1261 115.836 69.2867 116.675L49.2306 136.731C48.3917 137.57 48.3917 138.93 49.2306 139.769C49.6504 140.189 50.2002 140.398 50.75 140.398C51.2998 140.398 51.8496 140.189 52.2692 139.769L72.3253 119.713C73.1642 118.874 73.1642 117.514 72.3253 116.675Z" fill="#2E3C42"/>
<path d="M45.609 143.391C44.7698 142.552 43.4099 142.552 42.5707 143.391L37.6293 148.332C36.7903 149.171 36.7903 150.532 37.6293 151.371C38.0489 151.79 38.5987 152 39.1484 152C39.6982 152 40.248 151.79 40.6676 151.371L45.609 146.429C46.448 145.59 46.448 144.23 45.609 143.391Z" fill="#2E3C42"/>
<path d="M67.6472 148.206C67.2478 147.806 66.6935 147.576 66.1285 147.576C65.5611 147.576 65.0092 147.806 64.6096 148.206C64.21 148.606 63.9801 149.158 63.9801 149.725C63.9801 150.29 64.2097 150.844 64.6096 151.244C65.0092 151.643 65.5635 151.873 66.1285 151.873C66.6935 151.873 67.2478 151.643 67.6472 151.244C68.0468 150.844 68.2769 150.29 68.2769 149.725C68.2769 149.158 68.0471 148.606 67.6472 148.206Z" fill="#2E3C42"/>
<path d="M83.632 132.22C82.7935 131.381 81.4336 131.381 80.5937 132.22L69.9706 142.843C69.1316 143.682 69.1316 145.043 69.9706 145.882C70.3902 146.301 70.9399 146.511 71.4897 146.511C72.0395 146.511 72.5893 146.301 73.0089 145.882L83.632 135.259C84.471 134.42 84.471 133.059 83.632 132.22Z" fill="#2E3C42"/>
<path d="M120.296 131.405C119.457 130.566 118.097 130.566 117.257 131.405L106.606 142.057C105.767 142.896 105.767 144.256 106.606 145.095C107.025 145.515 107.575 145.725 108.125 145.725C108.674 145.725 109.224 145.515 109.644 145.095L120.296 134.443C121.135 133.604 121.135 132.244 120.296 131.405Z" fill="#2E3C42"/>
<path d="M97.9082 71.2854C97.5086 70.8858 96.9543 70.6559 96.3893 70.6559C95.8242 70.6559 95.2699 70.8858 94.8703 71.2854C94.4709 71.685 94.2408 72.2393 94.2408 72.8065C94.2408 73.3715 94.4707 73.9237 94.8703 74.3233C95.2699 74.725 95.8242 74.9528 96.3893 74.9528C96.9543 74.9528 97.5086 74.725 97.9082 74.3233C98.3076 73.9237 98.5377 73.3715 98.5377 72.8065C98.5377 72.2393 98.3078 71.685 97.9082 71.2854Z" fill="#2E3C42"/>
</g>
<defs>
<clipPath id="clip0">
<rect width="110" height="110" fill="white" transform="translate(37 42)"/>
</clipPath>
</defs>
</svg>
