<svg width="200" height="200" viewBox="0 0 200 200" fill="none" xmlns="http://www.w3.org/2000/svg">
<rect width="200" height="200" rx="10" fill="#FFB75C"/>
<path d="M158.065 147.228L54.94 44.1029C54.6069 43.7704 54.1554 43.5837 53.6847 43.5839H50.3581C49.8876 43.5839 49.4363 43.7708 49.1036 44.1036C48.7708 44.4363 48.5839 44.8876 48.5839 45.3581V151.81C48.5839 152.28 48.7708 152.732 49.1036 153.064C49.4363 153.397 49.8876 153.584 50.3581 153.584H156.81C157.28 153.584 157.732 153.397 158.064 153.064C158.397 152.732 158.584 152.28 158.584 151.81V148.483C158.584 148.012 158.397 147.561 158.065 147.228ZM155.036 150.036H147.939V146.487C147.939 146.017 147.752 145.565 147.419 145.233C147.086 144.9 146.635 144.713 146.165 144.713C145.694 144.713 145.243 144.9 144.91 145.233C144.577 145.565 144.39 146.017 144.39 146.487V150.036H137.294V148.261C137.294 147.791 137.107 147.34 136.774 147.007C136.441 146.674 135.99 146.487 135.519 146.487C135.049 146.487 134.598 146.674 134.265 147.007C133.932 147.34 133.745 147.791 133.745 148.261V150.036H126.648V146.487C126.648 146.017 126.462 145.565 126.129 145.233C125.796 144.9 125.345 144.713 124.874 144.713C124.404 144.713 123.952 144.9 123.62 145.233C123.287 145.565 123.1 146.017 123.1 146.487V150.036H116.003V148.261C116.003 147.791 115.816 147.34 115.484 147.007C115.151 146.674 114.7 146.487 114.229 146.487C113.759 146.487 113.307 146.674 112.975 147.007C112.642 147.34 112.455 147.791 112.455 148.261V150.036H105.358V146.487C105.358 146.017 105.171 145.565 104.838 145.233C104.506 144.9 104.054 144.713 103.584 144.713C103.113 144.713 102.662 144.9 102.329 145.233C101.997 145.565 101.81 146.017 101.81 146.487V150.036H94.713V148.261C94.713 147.791 94.526 147.34 94.1933 147.007C93.8606 146.674 93.4093 146.487 92.9388 146.487C92.4682 146.487 92.0169 146.674 91.6842 147.007C91.3515 147.34 91.1646 147.791 91.1646 148.261V150.036H84.0678V146.487C84.0678 146.017 83.8809 145.565 83.5481 145.233C83.2154 144.9 82.7641 144.713 82.2936 144.713C81.8231 144.713 81.3718 144.9 81.0391 145.233C80.7063 145.565 80.5194 146.017 80.5194 146.487V150.036H73.4226V148.261C73.4226 147.791 73.2357 147.34 72.903 147.007C72.5703 146.674 72.119 146.487 71.6484 146.487C71.1779 146.487 70.7266 146.674 70.3939 147.007C70.0612 147.34 69.8742 147.791 69.8742 148.261V150.036H62.7775V146.487C62.7775 146.017 62.5905 145.565 62.2578 145.233C61.9251 144.9 61.4738 144.713 61.0033 144.713C60.5327 144.713 60.0815 144.9 59.7487 145.233C59.416 145.565 59.2291 146.017 59.2291 146.487V150.036H52.1323V142.939H55.6807C56.1512 142.939 56.6025 142.752 56.9352 142.419C57.268 142.086 57.4549 141.635 57.4549 141.165C57.4549 140.694 57.268 140.243 56.9352 139.91C56.6025 139.577 56.1512 139.39 55.6807 139.39H52.1323V132.294H53.9065C54.377 132.294 54.8283 132.107 55.161 131.774C55.4938 131.441 55.6807 130.99 55.6807 130.519C55.6807 130.049 55.4938 129.598 55.161 129.265C54.8283 128.932 54.377 128.745 53.9065 128.745H52.1323V121.648H55.6807C56.1512 121.648 56.6025 121.462 56.9352 121.129C57.268 120.796 57.4549 120.345 57.4549 119.874C57.4549 119.404 57.268 118.952 56.9352 118.62C56.6025 118.287 56.1512 118.1 55.6807 118.1H52.1323V111.003H53.9065C54.377 111.003 54.8283 110.816 55.161 110.484C55.4938 110.151 55.6807 109.7 55.6807 109.229C55.6807 108.759 55.4938 108.307 55.161 107.975C54.8283 107.642 54.377 107.455 53.9065 107.455H52.1323V100.358H55.6807C56.1512 100.358 56.6025 100.171 56.9352 99.8385C57.268 99.5057 57.4549 99.0545 57.4549 98.5839C57.4549 98.1134 57.268 97.6621 56.9352 97.3294C56.6025 96.9967 56.1512 96.8097 55.6807 96.8097H52.1323V89.713H53.9065C54.377 89.713 54.8283 89.526 55.161 89.1933C55.4938 88.8606 55.6807 88.4093 55.6807 87.9388C55.6807 87.4682 55.4938 87.0169 55.161 86.6842C54.8283 86.3515 54.377 86.1646 53.9065 86.1646H52.1323V79.0678H55.6807C56.1512 79.0678 56.6025 78.8809 56.9352 78.5481C57.268 78.2154 57.4549 77.7641 57.4549 77.2936C57.4549 76.8231 57.268 76.3718 56.9352 76.0391C56.6025 75.7063 56.1512 75.5194 55.6807 75.5194H52.1323V68.4226H53.9065C54.377 68.4226 54.8283 68.2357 55.161 67.903C55.4938 67.5703 55.6807 67.119 55.6807 66.6484C55.6807 66.1779 55.4938 65.7266 55.161 65.3939C54.8283 65.0612 54.377 64.8742 53.9065 64.8742H52.1323V57.7775H55.6807C56.1512 57.7775 56.6025 57.5905 56.9352 57.2578C57.268 56.9251 57.4549 56.4738 57.4549 56.0033C57.4549 55.5327 57.268 55.0815 56.9352 54.7487C56.6025 54.416 56.1512 54.2291 55.6807 54.2291H52.1323V47.1323H52.9507L155.036 149.217V150.036Z" fill="white"/>
<path d="M71.6484 132.294H110.681C111.032 132.294 111.375 132.19 111.666 131.995C111.958 131.8 112.186 131.523 112.32 131.198C112.454 130.874 112.489 130.517 112.421 130.173C112.352 129.829 112.183 129.513 111.935 129.265L72.903 90.2326C72.6549 89.9844 72.3387 89.8154 71.9946 89.747C71.6504 89.6785 71.2937 89.7137 70.9695 89.8479C70.6453 89.9822 70.3682 90.2096 70.1732 90.5014C69.9783 90.7932 69.8742 91.1362 69.8742 91.4871V130.519C69.8742 130.99 70.0612 131.441 70.3939 131.774C70.7266 132.107 71.1779 132.294 71.6484 132.294ZM73.4226 95.7703L106.397 128.745H73.4226V95.7703Z" fill="white"/>
<path d="M156.302 103.576L98.5918 45.8659C98.2591 45.5334 97.808 45.3467 97.3376 45.3467C96.8673 45.3467 96.4162 45.5334 96.0835 45.8659L81.0273 60.9222C80.6948 61.2549 80.508 61.706 80.508 62.1763C80.508 62.6466 80.6948 63.0977 81.0273 63.4304L138.737 121.141C139.07 121.473 139.521 121.66 139.991 121.66C140.462 121.66 140.913 121.473 141.246 121.141L156.302 106.084C156.634 105.752 156.821 105.3 156.821 104.83C156.821 104.36 156.634 103.909 156.302 103.576ZM139.993 117.377L138.737 116.122L139.993 114.867C140.325 114.534 140.512 114.082 140.512 113.612C140.512 113.141 140.324 112.69 139.991 112.357C139.827 112.192 139.631 112.062 139.416 111.973C139.2 111.884 138.97 111.838 138.737 111.838C138.266 111.838 137.815 112.025 137.482 112.358L136.229 113.611L133.719 111.103L137.482 107.34C137.801 107.004 137.976 106.557 137.97 106.095C137.964 105.632 137.778 105.19 137.45 104.863C137.123 104.536 136.681 104.349 136.219 104.343C135.756 104.338 135.309 104.513 134.974 104.831L131.21 108.595L128.7 106.084L129.955 104.831C130.288 104.499 130.475 104.047 130.475 103.577C130.476 103.106 130.289 102.655 129.956 102.322C129.624 101.989 129.172 101.802 128.702 101.802C128.231 101.801 127.78 101.988 127.447 102.321L126.192 103.576L123.683 101.068L127.447 97.3042C127.612 97.1394 127.742 96.9437 127.832 96.7283C127.921 96.5129 127.967 96.2821 127.967 96.049C127.967 95.8159 127.921 95.585 127.832 95.3697C127.742 95.1543 127.612 94.9586 127.447 94.7937C127.282 94.6289 127.086 94.4981 126.871 94.4089C126.656 94.3197 126.425 94.2738 126.192 94.2738C125.958 94.2738 125.728 94.3197 125.512 94.4089C125.297 94.4981 125.101 94.6289 124.936 94.7937L121.173 98.5573L118.665 96.049L119.92 94.7937C120.252 94.4608 120.439 94.0094 120.439 93.5388C120.439 93.0682 120.252 92.617 119.919 92.2844C119.586 91.9518 119.134 91.765 118.664 91.7652C118.193 91.7654 117.742 91.9526 117.409 92.2855L116.156 93.5385L113.646 91.0302L117.409 87.2667C117.728 86.9313 117.903 86.4846 117.897 86.022C117.891 85.5594 117.705 85.1173 117.378 84.7902C117.05 84.463 116.608 84.2766 116.146 84.2707C115.683 84.2647 115.236 84.4398 114.901 84.7585L111.138 88.522L108.629 86.0115L109.882 84.7585C110.047 84.5938 110.178 84.3982 110.267 84.183C110.356 83.9677 110.402 83.737 110.403 83.504C110.403 83.271 110.357 83.0402 110.268 82.8249C110.179 82.6096 110.048 82.4139 109.883 82.2491C109.719 82.0842 109.523 81.9535 109.308 81.8642C109.093 81.7749 108.862 81.7289 108.629 81.7288C108.396 81.7287 108.165 81.7745 107.95 81.8636C107.735 81.9527 107.539 82.0833 107.374 82.248L106.119 83.5032L103.611 80.995L107.374 77.2314C107.707 76.8985 107.894 76.447 107.894 75.9762C107.894 75.5054 107.707 75.0539 107.374 74.721C107.041 74.3881 106.59 74.201 106.119 74.201C105.648 74.201 105.196 74.3881 104.864 74.721L101.1 78.4845L98.5918 75.9762L99.847 74.721C100.18 74.3881 100.366 73.9366 100.366 73.466C100.366 72.9954 100.179 72.5442 99.8459 72.2116C99.6811 72.0469 99.4854 71.9163 99.2701 71.8272C99.0548 71.7381 98.824 71.6923 98.591 71.6924C98.1204 71.6926 97.6692 71.8798 97.3365 72.2127L96.0835 73.4657L93.573 70.9575L97.3365 67.1939C97.6552 66.8585 97.8303 66.4119 97.8243 65.9492C97.8184 65.4866 97.632 65.0445 97.3048 64.7174C96.9777 64.3902 96.5356 64.2038 96.073 64.1979C95.6104 64.192 95.1637 64.367 94.8283 64.6857L91.0648 68.4492L88.5565 65.9387L89.8095 64.6857C89.9744 64.521 90.1052 64.3254 90.1944 64.1102C90.2837 63.895 90.3297 63.6642 90.3298 63.4312C90.3299 63.1982 90.2841 62.9674 90.195 62.7521C90.1059 62.5368 89.9753 62.3411 89.8106 62.1763C89.6459 62.0115 89.4504 61.8807 89.2351 61.7914C89.0199 61.7021 88.7892 61.6561 88.5562 61.656C88.3232 61.6559 88.0924 61.7017 87.8771 61.7908C87.6618 61.8799 87.4661 62.0105 87.3013 62.1752L86.046 63.4304L84.793 62.1752L93.573 53.3952L148.773 108.595L139.993 117.377ZM151.283 106.084L96.0835 50.8847L97.3365 49.6294L152.536 104.831L151.283 106.084Z" fill="white"/>
</svg>
