<?xml version="1.0" encoding="utf-8"?>
<svg viewBox="157.989 108.861 200 200" xmlns="http://www.w3.org/2000/svg">
  <defs>
    <clipPath id="clip0">
      <rect width="110" height="110" fill="white" transform="translate(45 45)"/>
    </clipPath>
  </defs>
  <rect width="200" height="200" rx="10" fill="#2E3C42" x="157.989" y="108.861"/>
  <g clip-path="url(#clip0)" transform="matrix(1, 0, 0, 1, 157.988663, 108.860985)">
    <path d="M 79.838 110.263 L 89.741 101.829 L 79.838 110.263 Z M 79.838 110.263 L 89.741 118.697 C 90.61 119.437 90.714 120.741 89.975 121.609 L 89.785 121.447 L 89.975 121.609 C 89.566 122.09 88.984 122.336 88.401 122.336 C 87.928 122.336 87.451 122.174 87.063 121.843 L 75.311 111.836 C 74.85 111.443 74.585 110.869 74.585 110.263 C 74.585 109.657 74.851 109.083 75.311 108.69 L 87.063 98.684 C 89.318 96.702 92.914 99.369 89.751 101.915 L 79.838 110.263 Z" fill="#FFB75C" stroke="#FFB75C" stroke-width="0.5"/>
    <path d="M 120.162 110.263 L 110.259 118.697 C 109.391 119.437 109.286 120.74 110.026 121.609 C 110.434 122.09 111.016 122.336 111.6 122.336 C 112.072 122.336 112.549 122.174 112.937 121.843 L 124.689 111.836 C 125.15 111.443 125.415 110.869 125.415 110.263 C 125.415 109.657 125.15 109.083 124.689 108.69 L 112.937 98.684 C 112.937 98.684 112.937 98.684 112.937 98.684 C 112.07 97.943 110.765 98.049 110.026 98.917 L 120.162 110.263 Z M 120.162 110.263 L 110.259 101.829 C 110.259 101.829 110.259 101.829 110.259 101.829 C 109.391 101.09 109.286 99.786 110.026 98.917 L 120.162 110.263 Z" fill="#FFB75C" stroke="#FFB75C" stroke-width="0.5"/>
    <path d="M 95.411 129.797 L 95.412 129.797 C 95.555 129.827 95.698 129.842 95.84 129.842 C 96.796 129.842 97.654 129.174 97.859 128.201 L 97.859 128.201 L 105.183 93.428 C 105.418 92.311 104.703 91.215 103.587 90.98 L 103.587 90.98 C 102.47 90.745 101.375 91.46 101.14 92.576 L 93.816 127.349 C 93.816 127.349 93.816 127.349 93.816 127.349 C 93.581 128.465 94.295 129.562 95.411 129.797 Z" fill="#FFB75C" stroke="#FFB75C" stroke-width="0.5"/>
    <path d="M 57.193 148.786 L 142.807 148.786 C 149.668 148.786 155.25 143.205 155.25 136.343 L 155.25 63.679 C 155.25 56.818 149.668 51.236 142.807 51.236 L 57.193 51.236 C 50.332 51.236 44.75 56.818 44.75 63.679 L 44.75 136.343 C 44.75 143.205 50.332 148.786 57.193 148.786 Z M 48.882 63.679 C 48.882 59.097 52.611 55.368 57.193 55.368 L 142.807 55.368 C 147.389 55.368 151.118 59.097 151.118 63.679 L 151.118 136.343 C 151.118 140.925 147.389 144.654 142.807 144.654 L 57.193 144.654 C 52.611 144.654 48.882 140.925 48.882 136.343 L 48.882 63.679 Z" fill="#FFB75C" stroke="#FFB75C" stroke-width="0.5"/>
    <path d="M 46.816 80.816 L 153.184 80.816 C 154.325 80.816 155.25 79.891 155.25 78.75 C 155.25 77.61 154.325 76.684 153.184 76.684 L 46.816 76.684 C 45.675 76.684 44.75 77.61 44.75 78.75 C 44.75 79.891 45.675 80.816 46.816 80.816 Z" fill="#FFB75C" stroke="#FFB75C" stroke-width="0.5"/>
    <path d="M 70.032 66.129 C 70.032 69.435 72.723 72.126 76.029 72.126 C 79.336 72.126 82.026 69.435 82.026 66.129 C 82.026 62.822 79.336 60.132 76.029 60.132 C 72.723 60.132 70.032 62.822 70.032 66.129 Z M 74.164 66.129 C 74.164 65.1 75.001 64.264 76.029 64.264 C 77.057 64.264 77.894 65.1 77.894 66.129 C 77.894 67.157 77.057 67.994 76.029 67.994 C 75.001 67.994 74.164 67.157 74.164 66.129 Z" fill="#FFB75C" stroke="#FFB75C" stroke-width="0.5"/>
    <path d="M 52.374 66.073 C 52.374 69.38 55.064 72.07 58.371 72.07 C 61.678 72.07 64.368 69.38 64.368 66.073 C 64.368 62.766 61.678 60.076 58.371 60.076 C 55.064 60.076 52.374 62.766 52.374 66.073 Z M 56.506 66.073 C 56.506 65.046 57.344 64.208 58.371 64.208 C 59.399 64.208 60.236 65.045 60.236 66.073 C 60.236 67.101 59.399 67.938 58.371 67.938 C 57.344 67.938 56.506 67.101 56.506 66.073 Z" fill="#FFB75C" stroke="#FFB75C" stroke-width="0.5"/>
    <path d="M 87.69 66.183 C 87.69 69.49 90.38 72.181 93.686 72.181 C 96.993 72.181 99.684 69.491 99.684 66.183 C 99.684 62.877 96.993 60.187 93.686 60.187 C 90.38 60.187 87.69 62.877 87.69 66.183 Z M 91.822 66.183 C 91.822 65.155 92.659 64.318 93.686 64.318 C 94.715 64.318 95.551 65.155 95.551 66.183 C 95.551 67.212 94.715 68.048 93.686 68.048 C 92.659 68.048 91.822 67.212 91.822 66.183 Z" fill="#FFB75C" stroke="#FFB75C" stroke-width="0.5"/>
  </g>
</svg>