<svg width="350" height="350" viewBox="0 0 350 350" fill="none" xmlns="http://www.w3.org/2000/svg">
<rect width="350" height="350" fill="#F4FDFD"/>
<g filter="url(#filter0_d)">
<path d="M188.009 170H292.029C296.447 170 300.028 166.407 299.737 161.998C295.794 102.1 247.9 54.2059 188.002 50.2625C183.593 49.9723 180 53.5817 180 58V162C180 166.418 183.591 170 188.009 170Z" fill="#2E3C42"/>
</g>
<g filter="url(#filter1_d)">
<path fill-rule="evenodd" clip-rule="evenodd" d="M250.381 282.258C246.717 284.733 241.798 283.417 239.576 279.595L190.262 194.778C189.539 193.536 189.166 192.128 189.176 190.691C189.208 186.273 192.787 182.629 197.205 182.629H295.35C299.769 182.629 303.378 186.215 303.089 190.624C300.582 228.775 280.269 262.064 250.381 282.258Z" fill="#2E3C42"/>
</g>
<g filter="url(#filter2_d)">
<path fill-rule="evenodd" clip-rule="evenodd" d="M222.303 274.811C224.377 278.377 223.416 282.969 219.886 285.103C204.969 294.124 187.109 299.239 166.647 299.239C100.289 299.239 46.4946 245.445 46.4946 179.087C46.4946 115.417 96.0178 63.3141 158.646 59.1963C163.054 58.9065 166.647 62.5159 166.647 66.9341L166.647 176.93C166.647 178.343 167.021 179.73 167.731 180.951L222.303 274.811Z" fill="#2E3C42"/>
</g>
<defs>
<filter id="filter0_d" x="174" y="47.2462" width="131.754" height="131.754" filterUnits="userSpaceOnUse" color-interpolation-filters="sRGB">
<feFlood flood-opacity="0" result="BackgroundImageFix"/>
<feColorMatrix in="SourceAlpha" type="matrix" values="0 0 0 0 0 0 0 0 0 0 0 0 0 0 0 0 0 0 127 0"/>
<feOffset dy="3"/>
<feGaussianBlur stdDeviation="3"/>
<feColorMatrix type="matrix" values="0 0 0 0 0 0 0 0 0 0 0 0 0 0 0 0 0 0 0.25 0"/>
<feBlend mode="normal" in2="BackgroundImageFix" result="effect1_dropShadow"/>
<feBlend mode="normal" in="SourceGraphic" in2="effect1_dropShadow" result="shape"/>
</filter>
<filter id="filter1_d" x="183.176" y="179.629" width="125.929" height="112.89" filterUnits="userSpaceOnUse" color-interpolation-filters="sRGB">
<feFlood flood-opacity="0" result="BackgroundImageFix"/>
<feColorMatrix in="SourceAlpha" type="matrix" values="0 0 0 0 0 0 0 0 0 0 0 0 0 0 0 0 0 0 127 0"/>
<feOffset dy="3"/>
<feGaussianBlur stdDeviation="3"/>
<feColorMatrix type="matrix" values="0 0 0 0 0 0 0 0 0 0 0 0 0 0 0 0 0 0 0.25 0"/>
<feBlend mode="normal" in2="BackgroundImageFix" result="effect1_dropShadow"/>
<feBlend mode="normal" in="SourceGraphic" in2="effect1_dropShadow" result="shape"/>
</filter>
<filter id="filter2_d" x="40.4946" y="56.18" width="188.891" height="252.059" filterUnits="userSpaceOnUse" color-interpolation-filters="sRGB">
<feFlood flood-opacity="0" result="BackgroundImageFix"/>
<feColorMatrix in="SourceAlpha" type="matrix" values="0 0 0 0 0 0 0 0 0 0 0 0 0 0 0 0 0 0 127 0"/>
<feOffset dy="3"/>
<feGaussianBlur stdDeviation="3"/>
<feColorMatrix type="matrix" values="0 0 0 0 0 0 0 0 0 0 0 0 0 0 0 0 0 0 0.25 0"/>
<feBlend mode="normal" in2="BackgroundImageFix" result="effect1_dropShadow"/>
<feBlend mode="normal" in="SourceGraphic" in2="effect1_dropShadow" result="shape"/>
</filter>
</defs>
</svg>
